<svg width="20" height="25" viewBox="0 0 20 25" fill="none" xmlns="http://www.w3.org/2000/svg">
<path d="M14.5425 5.77012H14.8124C15.6813 5.77012 16.5488 5.77012 17.4177 5.77012C18.6712 5.77012 19.4983 6.59454 19.4996 7.84608C19.4996 12.6091 19.4996 17.372 19.4996 22.135C19.4996 23.3689 18.682 24.192 17.4596 24.1933C12.3378 24.1933 7.21569 24.1933 2.09307 24.1933C0.867961 24.1933 0.0462711 23.3716 0.0449219 22.1432C0.0449219 17.3711 0.0449219 12.5996 0.0449219 7.82845C0.0449219 6.6081 0.876056 5.77826 2.09172 5.77012C2.96873 5.77012 3.84573 5.77012 4.72274 5.77012H5.07489C5.07489 5.32808 5.04656 4.90232 5.07489 4.48197C5.25839 2.18907 7.20399 0.301597 9.46262 0.203969C11.9128 0.0995611 14.0123 1.7267 14.3981 4.06028C14.498 4.60672 14.498 5.16808 14.5425 5.77012ZM6.71692 7.45827V7.76065C6.71692 8.13489 6.72501 8.51048 6.71692 8.88473C6.70994 9.08727 6.6291 9.28017 6.48977 9.42669C6.35044 9.57321 6.16236 9.66313 5.96134 9.67931C5.75585 9.69749 5.5511 9.63708 5.38801 9.51013C5.22492 9.38318 5.11551 9.19906 5.08164 8.99456C5.05753 8.77851 5.04896 8.56099 5.056 8.34371C5.056 8.05082 5.056 7.75794 5.056 7.44471H2.14569C1.79894 7.44471 1.71394 7.53014 1.71394 7.87726C1.71394 12.6131 1.71394 17.3494 1.71394 22.0862C1.71394 22.4428 1.78814 22.5188 2.13759 22.5188C7.23233 22.5188 12.328 22.5188 17.4245 22.5188C17.7577 22.5188 17.836 22.4401 17.836 22.0998V7.86235C17.836 7.53014 17.7483 7.44336 17.4177 7.44336C16.5236 7.44336 15.6295 7.44336 14.7354 7.44336C14.668 7.44336 14.6005 7.45285 14.502 7.45963V7.75116C14.502 8.10913 14.5128 8.4671 14.502 8.82371C14.4737 9.50168 13.7991 9.89762 13.2445 9.55863C13.1161 9.48429 13.0104 9.37594 12.939 9.24539C12.8677 9.11484 12.8333 8.9671 12.8398 8.81829C12.8398 8.36811 12.8398 7.91794 12.8398 7.45556L6.71692 7.45827ZM12.8101 5.75927C13.0179 4.21214 12.4458 2.92535 11.2693 2.25687C10.7349 1.95848 10.124 1.82745 9.51503 1.8806C8.90604 1.93376 8.32677 2.16867 7.85163 2.55518C6.95843 3.27383 6.45921 4.74096 6.76414 5.75927H12.8101Z" fill="#948176"/>
</svg>
