<svg width="176" height="79" viewBox="0 0 176 79" fill="none" xmlns="http://www.w3.org/2000/svg">
<g clip-path="url(#clip0_1_10311)">
<path d="M176 63.7598H0L4.99834 78.7598H171.271L176 63.7598Z" fill="#FE7349"/>
<path d="M13.0178 74.6666L11.3017 69.3246H11.2578C11.3196 70.4112 11.3504 71.1363 11.3504 71.4996V74.6666H10V67.8575H12.0573L13.7442 73.0645H13.7734L15.5626 67.8575H17.62V74.6666H16.211V71.4437C16.211 71.2916 16.2127 71.1162 16.2159 70.9174C16.2223 70.7187 16.2451 70.1908 16.2841 69.3339H16.2403L14.4023 74.6666H13.0178ZM23.5238 74.6666H19.4189V67.8575H23.5238V69.0406H20.9302V70.5355H23.3434V71.7184H20.9302V73.4743H23.5238V74.6666ZM30.9292 71.1968C30.9292 72.3177 30.5945 73.1763 29.925 73.7724C29.2587 74.3685 28.2951 74.6666 27.0339 74.6666H25.0157V67.8575H27.2534C28.4169 67.8575 29.3205 68.151 29.964 68.7377C30.6076 69.3246 30.9292 70.1443 30.9292 71.1968ZM29.3595 71.2341C29.3595 69.7717 28.6834 69.0406 27.3314 69.0406H26.5269V73.4743H27.1754C28.6314 73.4743 29.3595 72.7275 29.3595 71.2341ZM32.4065 74.6666V67.8575H33.9177V74.6666H32.4065ZM38.4614 74.6666H36.9502V69.0592H35.0148V67.8575H40.397V69.0592H38.4614V74.6666ZM45.5987 74.6666H41.4939V67.8575H45.5987V69.0406H43.0051V70.5355H45.4184V71.7184H43.0051V73.4743H45.5987V74.6666ZM48.6018 70.8801H49.0894C49.5672 70.8801 49.9198 70.8041 50.1474 70.6519C50.3749 70.4998 50.4886 70.2607 50.4886 69.9348C50.4886 69.6118 50.3716 69.382 50.1376 69.2455C49.9068 69.1088 49.5477 69.0406 49.0602 69.0406H48.6018V70.8801ZM48.6018 72.0537V74.6666H47.0906V67.8575H49.1674C50.136 67.8575 50.8527 68.0267 51.3175 68.3651C51.7822 68.7005 52.0145 69.2112 52.0145 69.8975C52.0145 70.298 51.8992 70.6551 51.6685 70.9686C51.4377 71.2791 51.1111 71.5229 50.6884 71.6998C51.761 73.2305 52.4599 74.2195 52.7849 74.6666H51.1078L49.4064 72.0537H48.6018ZM55.1931 70.8801H55.6806C56.1585 70.8801 56.5111 70.8041 56.7387 70.6519C56.9661 70.4998 57.0799 70.2607 57.0799 69.9348C57.0799 69.6118 56.9629 69.382 56.7289 69.2455C56.4981 69.1088 56.139 69.0406 55.6515 69.0406H55.1931V70.8801ZM55.1931 72.0537V74.6666H53.6819V67.8575H55.7587C56.7273 67.8575 57.444 68.0267 57.9087 68.3651C58.3735 68.7005 58.6058 69.2112 58.6058 69.8975C58.6058 70.298 58.4905 70.6551 58.2598 70.9686C58.029 71.2791 57.7023 71.5229 57.2797 71.6998C58.3523 73.2305 59.0512 74.2195 59.3761 74.6666H57.6991L55.9977 72.0537H55.1931ZM64.6365 74.6666L64.1197 73.0459H61.5212L61.0044 74.6666H59.3761L61.8917 67.8297H63.7395L66.2648 74.6666H64.6365ZM63.759 71.835C63.2811 70.3662 63.0114 69.5357 62.9496 69.3433C62.8911 69.1507 62.8488 68.9985 62.8229 68.8868C62.7156 69.2842 62.4084 70.267 61.9014 71.835H63.759ZM73.4899 74.6666H71.569L68.4684 69.5155H68.4245C68.4863 70.4252 68.5172 71.0741 68.5172 71.4624V74.6666H67.1666V67.8575H69.0729L72.1687 72.9573H72.2029C72.154 72.0724 72.1297 71.4467 72.1297 71.0804V67.8575H73.4899V74.6666ZM79.3937 74.6666H75.2888V67.8575H79.3937V69.0406H76.8001V70.5355H79.2133V71.7184H76.8001V73.4743H79.3937V74.6666ZM85.2489 74.6666L84.7321 73.0459H82.1336L81.6168 74.6666H79.9885L82.5041 67.8297H84.3519L86.8772 74.6666H85.2489ZM84.3714 71.835C83.8935 70.3662 83.6238 69.5357 83.562 69.3433C83.5035 69.1507 83.4612 68.9985 83.4353 68.8868C83.328 69.2842 83.0208 70.267 82.5138 71.835H84.3714ZM94.1023 74.6666H92.1814L89.0807 69.5155H89.0369C89.0987 70.4252 89.1296 71.0741 89.1296 71.4624V74.6666H87.779V67.8575H89.6853L92.7811 72.9573H92.8152C92.7664 72.0724 92.7421 71.4467 92.7421 71.0804V67.8575H94.1023V74.6666ZM100.006 70.8801H100.494C100.971 70.8801 101.324 70.8041 101.552 70.6519C101.779 70.4998 101.893 70.2607 101.893 69.9348C101.893 69.6118 101.776 69.382 101.542 69.2455C101.311 69.1088 100.952 69.0406 100.464 69.0406H100.006V70.8801ZM100.006 72.0537V74.6666H98.4948V67.8575H100.572C101.54 67.8575 102.257 68.0267 102.722 68.3651C103.186 68.7005 103.419 69.2112 103.419 69.8975C103.419 70.298 103.303 70.6551 103.073 70.9686C102.842 71.2791 102.515 71.5229 102.093 71.6998C103.165 73.2305 103.864 74.2195 104.189 74.6666H102.512L100.811 72.0537H100.006ZM109.191 74.6666H105.086V67.8575H109.191V69.0406H106.597V70.5355H109.011V71.7184H106.597V73.4743H109.191V74.6666ZM114.89 72.7757C114.89 73.3904 114.658 73.8748 114.193 74.2288C113.732 74.5827 113.088 74.7598 112.262 74.7598C111.502 74.7598 110.829 74.6231 110.244 74.3499V73.0086C110.725 73.2135 111.131 73.3578 111.463 73.4417C111.798 73.5255 112.103 73.5675 112.379 73.5675C112.711 73.5675 112.964 73.5068 113.14 73.3858C113.319 73.2647 113.408 73.0846 113.408 72.8456C113.408 72.712 113.369 72.594 113.291 72.4916C113.213 72.3859 113.098 72.285 112.945 72.1889C112.795 72.0926 112.488 71.9388 112.024 71.7278C111.588 71.5321 111.261 71.3443 111.044 71.1643C110.826 70.9841 110.652 70.7746 110.522 70.5355C110.392 70.2965 110.327 70.017 110.327 69.6972C110.327 69.0948 110.54 68.6213 110.966 68.2768C111.395 67.932 111.986 67.7598 112.74 67.7598C113.111 67.7598 113.463 67.8016 113.798 67.8855C114.136 67.9693 114.489 68.0873 114.856 68.2395L114.368 69.3619C113.988 69.2129 113.673 69.1088 113.423 69.0498C113.176 68.9908 112.932 68.9613 112.691 68.9613C112.405 68.9613 112.186 69.0249 112.033 69.1523C111.88 69.2796 111.804 69.4456 111.804 69.6506C111.804 69.7778 111.835 69.8896 111.897 69.9859C111.958 70.079 112.056 70.1707 112.189 70.2607C112.326 70.3476 112.646 70.506 113.15 70.7358C113.816 71.04 114.273 71.3458 114.52 71.6533C114.767 71.9575 114.89 72.3317 114.89 72.7757ZM118.932 74.6666H117.42V69.0592H115.485V67.8575H120.867V69.0592H118.932V74.6666ZM126.327 74.6666L125.811 73.0459H123.212L122.695 74.6666H121.067L123.583 67.8297H125.43L127.956 74.6666H126.327ZM125.45 71.835C124.972 70.3662 124.702 69.5357 124.641 69.3433C124.582 69.1507 124.54 68.9985 124.514 68.8868C124.407 69.2842 124.099 70.267 123.592 71.835H125.45ZM134.659 67.8575V72.2634C134.659 72.7664 134.54 73.2073 134.303 73.5861C134.069 73.9648 133.73 74.2551 133.284 74.4569C132.839 74.6587 132.313 74.7598 131.705 74.7598C130.788 74.7598 130.076 74.5362 129.569 74.0891C129.062 73.6389 128.809 73.0241 128.809 72.2448V67.8575H130.315V72.0259C130.315 72.5506 130.426 72.9356 130.647 73.1809C130.868 73.4262 131.233 73.5489 131.744 73.5489C132.238 73.5489 132.595 73.4262 132.816 73.1809C133.04 72.9325 133.153 72.5444 133.153 72.0165V67.8575H134.659ZM137.916 70.8801H138.403C138.881 70.8801 139.234 70.8041 139.461 70.6519C139.689 70.4998 139.802 70.2607 139.802 69.9348C139.802 69.6118 139.685 69.382 139.451 69.2455C139.221 69.1088 138.862 69.0406 138.374 69.0406H137.916V70.8801ZM137.916 72.0537V74.6666H136.404V67.8575H138.481C139.45 67.8575 140.167 68.0267 140.631 68.3651C141.096 68.7005 141.328 69.2112 141.328 69.8975C141.328 70.298 141.213 70.6551 140.982 70.9686C140.752 71.2791 140.425 71.5229 140.002 71.6998C141.075 73.2305 141.774 74.2195 142.099 74.6666H140.422L138.72 72.0537H137.916ZM147.359 74.6666L146.842 73.0459H144.244L143.727 74.6666H142.099L144.614 67.8297H146.462L148.987 74.6666H147.359ZM146.482 71.835C146.004 70.3662 145.734 69.5357 145.672 69.3433C145.614 69.1507 145.571 68.9985 145.545 68.8868C145.438 69.2842 145.131 70.267 144.624 71.835H146.482ZM156.212 74.6666H154.292L151.191 69.5155H151.147C151.209 70.4252 151.24 71.0741 151.24 71.4624V74.6666H149.889V67.8575H151.795L154.891 72.9573H154.925C154.877 72.0724 154.852 71.4467 154.852 71.0804V67.8575H156.212V74.6666ZM160.761 74.6666H159.25V69.0592H157.314V67.8575H162.696V69.0592H160.761V74.6666ZM168 72.7757C168 73.3904 167.768 73.8748 167.304 74.2288C166.842 74.5827 166.198 74.7598 165.373 74.7598C164.613 74.7598 163.939 74.6231 163.354 74.3499V73.0086C163.836 73.2135 164.242 73.3578 164.574 73.4417C164.908 73.5255 165.214 73.5675 165.49 73.5675C165.822 73.5675 166.075 73.5068 166.251 73.3858C166.429 73.2647 166.518 73.0846 166.518 72.8456C166.518 72.712 166.479 72.594 166.401 72.4916C166.323 72.3859 166.207 72.285 166.056 72.1889C165.906 72.0926 165.599 71.9388 165.134 71.7278C164.699 71.5321 164.371 71.3443 164.154 71.1643C163.936 70.9841 163.763 70.7746 163.632 70.5355C163.502 70.2965 163.437 70.017 163.437 69.6972C163.437 69.0948 163.651 68.6213 164.076 68.2768C164.505 67.932 165.097 67.7598 165.85 67.7598C166.222 67.7598 166.574 67.8016 166.908 67.8855C167.246 67.9693 167.599 68.0873 167.967 68.2395L167.479 69.3619C167.098 69.2129 166.783 69.1088 166.534 69.0498C166.285 68.9908 166.042 68.9613 165.802 68.9613C165.516 68.9613 165.296 69.0249 165.144 69.1523C164.991 69.2796 164.914 69.4456 164.914 69.6506C164.914 69.7778 164.945 69.8896 165.008 69.9859C165.069 70.079 165.167 70.1707 165.3 70.2607C165.437 70.3476 165.757 70.506 166.261 70.7358C166.927 71.04 167.384 71.3458 167.63 71.6533C167.877 71.9575 168 72.3317 168 72.7757Z" fill="white"/>
<path d="M11.3376 52.0838C9.30919 52.9705 8.11351 53.1341 7.54342 53.1057L7.53925 53.1055C7.51885 52.9507 7.50528 52.7141 7.52861 52.374C7.58589 51.5387 7.84969 50.4126 8.38038 49.0998C9.44812 46.4585 11.3509 43.6606 13.5657 41.743C15.0455 40.4619 16.4151 39.7702 17.6153 39.5434C18.0686 40.9919 18.4852 43.0374 18.4832 45.7797C18.4806 49.3685 17.76 54.2929 15.3009 60.7598H23.3012C25.2863 54.7955 25.9971 49.8409 26 45.7854C26.0044 39.8305 24.4813 36.0507 23.5684 34.1231L22.7766 32.4515L21.0049 32.0468C16.2318 30.9566 11.8731 33.1325 8.71086 35.8701C5.50171 38.6485 2.91952 42.4854 1.43442 46.1591C0.688692 48.0039 0.159111 49.9554 0.0301797 51.8354C-0.0953223 53.6654 0.13634 55.8345 1.37976 57.678C2.6587 59.5741 4.61538 60.5548 6.77142 60.7598H8.60423C10.3822 60.6061 12.2911 60.0321 14.2905 59.1579L11.3376 52.0838Z" fill="black"/>
<path d="M37.7006 53.2833C37.8952 48.7882 38.5271 43.1569 39.8799 37.9746C40.7544 34.6244 41.8912 31.6149 43.3019 29.258C44.7191 26.89 46.2591 25.432 47.843 24.7402L44.7839 17.7598C41.2469 19.3046 38.6518 22.1729 36.7503 25.3498C34.8421 28.538 33.4763 32.2922 32.4945 36.0533C30.5323 43.5709 29.9497 51.728 30.0033 56.989L30.0419 60.7598H41.3576C42.9437 60.7598 45.0024 60.2456 46.5635 59.2207C48.2338 58.1241 49.4335 56.4855 50 54.3702L42.6269 52.4023C42.5339 52.7498 42.4376 52.8113 42.3795 52.8484C42.3762 52.8506 42.3731 52.8526 42.3702 52.8546C42.2044 52.9634 41.7918 53.1443 40.9108 53.2451C40.0415 53.3445 39.0024 53.3377 37.7431 53.2851L37.7006 53.2833Z" fill="black"/>
<path fill-rule="evenodd" clip-rule="evenodd" d="M70.4999 0.759766L73.1901 3.42855C82.8119 12.9741 86.1733 25.3506 87.3633 39.1509C87.8934 45.2976 88 54.007 88 60.7598H80.3591C80.3591 54.4918 80.2647 46.811 79.8541 41.1184C79.2232 40.5555 78.4827 40.0928 77.7308 39.7455C76.7708 39.3017 76.1093 39.1862 75.9461 39.1578C75.9104 39.1515 75.8985 39.1495 75.9127 39.149L75.856 39.1507H65.6937C64.8456 39.1507 63.6173 39.5264 62.3884 40.2171C61.8887 40.498 61.4665 40.7884 61.1514 41.0407C60.7361 46.741 60.6407 54.4632 60.6407 60.7598H53C53 54.007 53.1064 45.2976 53.6366 39.1509C54.8266 25.3506 58.1879 12.9741 67.8098 3.42855L70.4999 0.759766ZM62.2282 32.0307C63.326 31.7112 64.4993 31.5067 65.6937 31.5067H75.756C76.6672 31.49 77.7096 31.6697 78.7633 31.9825C77.3916 24.0715 74.9044 17.3937 70.4999 11.8563C66.0863 17.4049 63.5981 24.0986 62.2282 32.0307Z" fill="black"/>
<path fill-rule="evenodd" clip-rule="evenodd" d="M99.0508 31.5797C97.5887 27.991 95.9372 25.655 93.6633 24.1912L97.7918 17.7598C103.328 21.324 105.914 27.2911 107.86 33.6696C110.348 41.8218 111.056 51.1717 110.997 56.9614L110.958 60.7454C108.986 60.7777 102.226 60.7454 100.072 60.7454C97.9189 60.7454 95.9644 59.4486 94.5557 58.1846C93.0615 56.8437 92.1831 55.0368 91.9363 52.9281C91.8535 52.2216 91.7539 51.4567 91.6515 50.6697C91.4609 49.2055 91.2603 47.6643 91.1394 46.2786C90.9488 44.091 90.8839 41.671 91.4073 39.4163C91.9588 37.0422 93.1959 34.7336 95.6073 33.1177C96.6348 32.429 97.7881 31.9259 99.0508 31.5797ZM101.366 38.879C102.535 43.7403 103.103 48.9115 103.292 53.1239C102.325 53.109 101.473 53.0509 100.698 52.885C99.9619 52.7275 99.7046 52.5388 99.6508 52.4905C99.6353 52.4766 99.6289 52.4694 99.6164 52.4444C99.6011 52.4134 99.5493 52.2966 99.519 52.0379C99.4092 51.1007 99.296 50.2367 99.1882 49.4137V49.4133C99.0141 48.0855 98.8542 46.8642 98.7453 45.614C98.5737 43.6454 98.5993 42.2001 98.8436 41.1482C99.0602 40.2161 99.3978 39.777 99.8532 39.4719C100.148 39.2742 100.621 39.0496 101.366 38.879Z" fill="black"/>
<path fill-rule="evenodd" clip-rule="evenodd" d="M121.049 34.116C121.238 34.031 121.434 33.9476 121.635 33.8655C121.116 33.0591 120.603 32.3499 119.995 31.6474C118.651 30.0932 116.724 28.4624 113 26.2707L116.9 19.7598C121.061 22.2089 123.731 24.3337 125.794 26.7183C127.536 28.7319 128.761 30.8581 130.025 33.0504L130.029 33.0577C130.211 33.3733 130.394 33.6901 130.579 34.0081L130.69 34.1995L130.778 34.4025C134.12 42.095 134.04 51.6482 133.985 57.0064L133.946 60.7538C132.637 60.7672 123.554 60.7538 122.107 60.7538C120.661 60.7538 119.048 59.7613 117.599 58.5311C116.051 57.2163 115.162 55.4119 114.914 53.3173C114.475 49.5982 114.309 46.5992 114.489 44.1666C114.671 41.7213 115.221 39.5584 116.458 37.7515C117.723 35.9031 119.418 34.848 121.049 34.116ZM124.912 40.7188C126.014 44.7774 126.297 49.2952 126.349 53.2566C125.193 53.2665 124.276 53.225 123.554 53.0972C122.888 52.9792 122.638 52.8294 122.581 52.7897C122.567 52.7567 122.527 52.6516 122.501 52.4354C122.082 48.8876 121.98 46.4442 122.107 44.7225C122.234 43.0134 122.569 42.31 122.779 42.0024C122.961 41.7364 123.275 41.4289 124.199 41.0141C124.428 40.9116 124.663 40.8146 124.912 40.7188Z" fill="black"/>
<path fill-rule="evenodd" clip-rule="evenodd" d="M140.776 27.9889C140.015 26.6402 139.122 25.2446 138.074 23.7598L132 28.2606C135.694 33.4912 136.854 36.9281 137.395 41.8331C137.414 45.3039 137.881 50.2325 138.472 54.7192C138.747 56.8082 139.06 58.8927 139.386 60.7598H147.012C146.647 58.8456 146.253 56.3737 145.901 53.6933C145.311 49.2129 144.891 44.5752 144.891 41.6154C144.891 37.0355 145.047 33.8197 148 31.3259L143.232 25.4008C142.261 26.2207 141.451 27.09 140.776 27.9889Z" fill="black"/>
<path d="M166.995 49.4977C167.381 50.6324 167.921 52.6756 168.203 54.9286C168.483 57.1648 168.461 59.2372 168.052 60.7598H175.8C176.129 58.4117 176.009 56.011 175.752 53.9627C175.396 51.1144 174.717 48.5217 174.166 46.9211L174.149 46.8707L174.13 46.821C172.711 43.0367 170.086 39.0341 166.793 36.122C163.556 33.2586 159.03 30.9251 154.057 32.047L152.263 32.4517L151.462 34.1234C150.538 36.0509 148.996 39.8306 149 45.7856C149.003 49.841 149.723 54.7955 151.732 60.7598H159.832C157.343 54.2931 156.613 49.3686 156.61 45.7798C156.609 43.0378 157.03 40.9925 157.489 39.544C158.759 39.7813 160.214 40.525 161.782 41.9106C164.069 43.9348 165.99 46.8416 166.995 49.4977Z" fill="black"/>
<path fill-rule="evenodd" clip-rule="evenodd" d="M145.705 15.6213C145.914 16.088 146.274 16.6242 147 17.4462L141.609 22.7598C140.67 21.6976 139.721 20.4753 139.037 18.9479C138.33 17.3662 138 15.672 138 13.7598H145.375C145.375 14.6737 145.521 15.209 145.705 15.6213Z" fill="#FE7349"/>
</g>
<defs>
<clipPath id="clip0_1_10311">
<rect width="176" height="78" fill="white" transform="translate(0 0.759766)"/>
</clipPath>
</defs>
</svg>
