<svg width="14" height="20" viewBox="0 0 14 20" fill="none" xmlns="http://www.w3.org/2000/svg">
<path d="M0.694104 7.52007C0.749842 5.57538 1.36641 4.02474 2.58327 2.74994C3.56319 1.70792 4.85009 1.03475 6.24026 0.836971C7.87343 0.590302 9.3892 0.934209 10.7624 1.87585C12.1598 2.83387 13.0807 4.16803 13.4857 5.85838C13.9346 7.73604 13.6554 9.50776 12.6521 11.1403C11.0372 13.7673 9.41518 16.3903 7.78612 19.0091C7.75456 19.0603 7.72496 19.114 7.68994 19.1627C7.42457 19.5398 6.95499 19.5444 6.69603 19.1627C6.5155 18.8955 6.35371 18.6151 6.18354 18.3403C4.69062 15.9227 3.19803 13.5046 1.70577 11.086C1.01028 9.95708 0.675361 8.71299 0.694104 7.52007ZM10.1454 7.49653C10.1426 6.6837 9.82972 5.90508 9.2751 5.33098C8.72047 4.75689 7.96928 4.43407 7.18583 4.43312C6.40598 4.43728 5.65914 4.76027 5.10732 5.33203C4.5555 5.90378 4.24319 6.67821 4.23814 7.48732C4.23826 8.29998 4.54853 9.07953 5.10109 9.65551C5.65365 10.2315 6.40356 10.557 7.18682 10.561C7.9703 10.5599 8.72147 10.2368 9.27594 9.66253C9.8304 9.08822 10.143 8.30941 10.1454 7.49653Z" fill="#FE7349"/>
</svg>
