<svg width="22" height="23" viewBox="0 0 22 23" fill="none" xmlns="http://www.w3.org/2000/svg">
<path d="M9.28908 0.76235C9.65445 0.81786 10.025 0.856587 10.3878 0.93017C12.2024 1.2764 13.8553 2.20292 15.0975 3.57014C16.7926 5.42392 17.5647 7.61593 17.3943 10.1216C17.2868 11.7091 16.7327 13.2338 15.796 14.5199C15.7082 14.649 15.6165 14.7626 15.5274 14.8839C15.5157 14.9038 15.5053 14.9245 15.4964 14.9459C15.5481 14.9988 15.6036 15.0608 15.663 15.1201C17.6529 17.1151 19.6459 19.1096 21.6418 21.1036C21.9258 21.3864 22.0795 21.7039 21.9581 22.108C21.9171 22.2494 21.8421 22.3786 21.7397 22.4845C21.6373 22.5903 21.5106 22.6695 21.3706 22.7152C21.2306 22.7609 21.0816 22.7716 20.9365 22.7466C20.7913 22.7215 20.6545 22.6614 20.538 22.5714C20.4542 22.5043 20.3749 22.4318 20.3004 22.3546C18.3208 20.3803 16.3464 18.4056 14.3771 16.4304C14.3193 16.3614 14.2674 16.2876 14.2222 16.2097C14.075 16.3181 13.9782 16.3891 13.8826 16.4679C12.793 17.2914 11.5173 17.8341 10.1683 18.048C7.41319 18.4817 4.9744 17.7756 2.88807 15.9218C1.33881 14.5496 0.435082 12.8158 0.0981189 10.7839C0.0568054 10.5386 0.0322762 10.2895 0 10.0429V8.88105C0.0348583 8.62286 0.0632603 8.37113 0.105865 8.11811C0.424771 6.09043 1.45384 4.24202 3.00943 2.90272C4.14795 1.89894 5.53423 1.2179 7.02459 0.93017C7.38737 0.857878 7.75532 0.815276 8.12198 0.759766L9.28908 0.76235ZM15.592 9.47746C15.5892 7.65602 14.865 5.90982 13.5778 4.62102C12.2906 3.33221 10.5452 2.60576 8.7236 2.60064C6.90103 2.59961 5.15249 3.3216 3.86168 4.60819C2.57087 5.89477 1.84324 7.64085 1.83845 9.46326C1.83708 11.2854 2.55941 13.0335 3.84664 14.3233C5.13387 15.6131 6.88064 16.339 8.70295 16.3414C10.5257 16.3431 12.2746 15.6211 13.5652 14.334C14.8557 13.0469 15.5824 11.3001 15.5855 9.47746H15.592Z" fill="#948176"/>
</svg>
